<svg width="38" height="38" viewBox="0 0 38 38" fill="none" xmlns="http://www.w3.org/2000/svg">
<circle cx="18.6221" cy="19.2241" r="18" stroke="#FB2C36"/>
<path d="M30.9188 24.2432C31.7251 25.6305 30.713 27.3646 29.1027 27.3646H8.14103C6.5276 27.3646 5.52024 25.6278 6.32492 24.2432L16.8059 6.20453C17.6125 4.81664 19.6329 4.81915 20.4381 6.20453L30.9188 24.2432ZM18.622 20.5138C17.5123 20.5138 16.6127 21.4068 16.6127 22.5083C16.6127 23.6098 17.5123 24.5028 18.622 24.5028C19.7317 24.5028 20.6313 23.6098 20.6313 22.5083C20.6313 21.4068 19.7317 20.5138 18.622 20.5138ZM16.7143 13.3445L17.0384 19.2413C17.0535 19.5173 17.2834 19.7333 17.5617 19.7333H19.6823C19.9606 19.7333 20.1905 19.5173 20.2056 19.2413L20.5297 13.3445C20.546 13.0464 20.307 12.7958 20.0063 12.7958H17.2377C16.937 12.7958 16.698 13.0464 16.7143 13.3445Z" fill="#FB2C36"/>
</svg>
