<svg width="38" height="38" viewBox="0 0 38 38" fill="none" xmlns="http://www.w3.org/2000/svg">
<circle cx="18.6221" cy="19.2134" r="18" stroke="#257FFF"/>
<path d="M24.0322 19.7129C26.3873 19.7129 28.1981 21.8185 27.6387 24.1357V24.1367C27.345 25.3519 26.3452 26.3571 25.0947 26.708L24.8418 26.7695C22.8759 27.173 21.1356 26.0709 20.5498 24.4609L20.5479 24.457C20.5447 24.4484 20.5451 24.443 20.5459 24.4385C20.547 24.4324 20.5504 24.4223 20.5596 24.4102C20.579 24.3845 20.6127 24.3643 20.6543 24.3643H21.9248C21.9636 24.3643 21.9972 24.3739 22.0195 24.3848L22.041 24.3984C22.4398 25.0699 23.1775 25.5272 24.0322 25.5273C25.2883 25.5273 26.3359 24.538 26.3359 23.2832C26.3359 22.0284 25.2883 21.0391 24.0322 21.0391H20.0225C19.8531 20.5609 19.6125 20.1157 19.3135 19.7129H24.0322ZM9.60352 19.7129H14.8906C16.5073 19.7131 17.8997 20.8348 18.0918 22.3086V22.3096C18.3309 24.1133 16.8773 25.6903 15.0107 25.6904C13.493 25.6904 12.2384 24.637 11.9619 23.2754C11.9613 23.2723 11.9582 23.2605 11.9766 23.2402C11.9966 23.2182 12.03 23.2021 12.0684 23.2021H13.3008C13.3347 23.2022 13.3664 23.212 13.3867 23.2246C13.4053 23.2362 13.4028 23.2413 13.3994 23.2314L13.4004 23.2344C13.6323 23.8962 14.2725 24.3643 15.0146 24.3643C16.0312 24.364 16.8743 23.4785 16.6943 22.4219V22.4209C16.5474 21.5634 15.7364 21.0391 14.9463 21.0391H9.60352C9.57196 21.0391 9.54495 21.0267 9.52637 21.0088C9.50801 20.991 9.50195 20.9723 9.50195 20.957V19.7939C9.50204 19.7788 9.50814 19.7608 9.52637 19.7432C9.54496 19.7252 9.57184 19.7129 9.60352 19.7129ZM19.1797 13.9941C19.483 12.4794 20.9939 11.3472 22.7383 11.6123L22.9072 11.6416C24.081 11.8799 25.0228 12.8009 25.2646 13.915C25.6795 15.8266 24.1804 17.5498 22.2285 17.5498H9.60352C9.57188 17.5498 9.54496 17.5375 9.52637 17.5195C9.50819 17.502 9.50207 17.4839 9.50195 17.4688V16.3057C9.50195 16.2904 9.50801 16.2717 9.52637 16.2539C9.54495 16.236 9.57192 16.2236 9.60352 16.2236H22.1611C22.9559 16.2236 23.7623 15.6984 23.9092 14.8418V14.8408C24.0894 13.783 23.2404 12.8975 22.2285 12.8975C21.4864 12.8976 20.846 13.3664 20.6143 14.0283V14.0312C20.6169 14.0234 20.6186 14.0284 20.6016 14.0391C20.583 14.0506 20.5521 14.0605 20.5156 14.0605H19.2832C19.2456 14.0605 19.2121 14.044 19.1924 14.0225C19.1833 14.0125 19.1796 14.0048 19.1787 14.002C19.1782 14.0003 19.1781 13.9992 19.1787 13.9961L19.1797 13.9941Z" stroke="#257FFF"/>
</svg>
