<svg width="38" height="37" viewBox="0 0 38 37" fill="none" xmlns="http://www.w3.org/2000/svg">
<circle cx="18.5764" cy="18.5" r="18" stroke="#106963"/>
<path d="M23.9868 18.9995C26.3419 18.9995 28.1526 21.1051 27.5933 23.4224V23.4233C27.2996 24.6385 26.2998 25.6437 25.0493 25.9946L24.7964 26.0562C22.8305 26.4597 21.0901 25.3575 20.5044 23.7476L20.5024 23.7437C20.4993 23.735 20.4997 23.7296 20.5005 23.7251C20.5016 23.7191 20.505 23.7089 20.5142 23.6968C20.5336 23.6711 20.5672 23.6509 20.6089 23.6509H21.8794C21.9182 23.6509 21.9518 23.6605 21.9741 23.6714L21.9956 23.6851C22.3944 24.3565 23.1321 24.8138 23.9868 24.814C25.2429 24.814 26.2905 23.8247 26.2905 22.5698C26.2905 21.315 25.2429 20.3257 23.9868 20.3257H19.9771C19.8077 19.8475 19.5671 19.4024 19.2681 18.9995H23.9868ZM9.55811 18.9995H14.8452C16.4619 18.9997 17.8543 20.1214 18.0464 21.5952V21.5962C18.2855 23.3999 16.8318 24.9769 14.9653 24.9771C13.4476 24.9771 12.193 23.9236 11.9165 22.562C11.9159 22.5589 11.9128 22.5472 11.9312 22.5269C11.9511 22.5049 11.9846 22.4888 12.0229 22.4888H13.2554C13.2893 22.4888 13.321 22.4986 13.3413 22.5112C13.3599 22.5228 13.3574 22.5279 13.354 22.5181L13.355 22.521C13.5869 23.1829 14.2271 23.6509 14.9692 23.6509C15.9858 23.6506 16.8289 22.7651 16.6489 21.7085V21.7075C16.502 20.85 15.6909 20.3257 14.9009 20.3257H9.55811C9.52655 20.3257 9.49954 20.3133 9.48096 20.2954C9.4626 20.2777 9.45654 20.2589 9.45654 20.2437V19.0806C9.45663 19.0654 9.46273 19.0474 9.48096 19.0298C9.49955 19.0118 9.52643 18.9995 9.55811 18.9995ZM19.1343 13.2808C19.4376 11.766 20.9485 10.6338 22.6929 10.8989L22.8618 10.9282C24.0355 11.1666 24.9774 12.0876 25.2192 13.2017C25.6341 15.1132 24.135 16.8364 22.1831 16.8364H9.55811C9.52647 16.8364 9.49955 16.8241 9.48096 16.8062C9.46278 16.7886 9.45666 16.7705 9.45654 16.7554V15.5923C9.45654 15.577 9.4626 15.5583 9.48096 15.5405C9.49954 15.5226 9.52651 15.5103 9.55811 15.5103H22.1157C22.9104 15.5103 23.7169 14.985 23.8638 14.1284V14.1274C24.044 13.0696 23.195 12.1841 22.1831 12.1841C21.441 12.1842 20.8006 12.653 20.5688 13.3149V13.3179C20.5715 13.3101 20.5732 13.3151 20.5562 13.3257C20.5375 13.3372 20.5067 13.3471 20.4702 13.3472H19.2378C19.2002 13.3472 19.1667 13.3306 19.147 13.3091C19.1379 13.2992 19.1342 13.2914 19.1333 13.2886C19.1328 13.287 19.1327 13.2858 19.1333 13.2827L19.1343 13.2808Z" stroke="#106963"/>
</svg>
